<?xml version="1.0" ?><svg id="Layer_1" style="enable-background:new 0 0 100 100;" version="1.1" viewBox="0 0 100 100" xml:space="preserve" xmlns="http://www.w3.org/2000/svg" xmlns:xlink="http://www.w3.org/1999/xlink"><g><path d="M84.3,23.6c0-1.3-1-2.3-2.3-2.3H59.4H40.6H18.1c-1.3,0-2.3,1-2.3,2.3l-2,52.8c0,1.3,1.1,2.4,2.4,2.4h28.1   c1,0,1.8-0.7,1.9-1.7l1.8-12.6l4.2,0l1.8,12.5c0.1,0.9,1,1.7,1.9,1.7h28.1c1.3,0,2.4-1.1,2.4-2.4L84.3,23.6z M59.3,23.3h22.6   c0.2,0,0.3,0.1,0.3,0.3l0.3,8.4c0,0,0,0-0.1,0H58.8L59.3,23.3z M57.3,23.3L56.8,32H43.2l-0.5-8.8H57.3z M56.7,34l-1,17.5   C55.6,54.6,53,57,50,57s-5.6-2.4-5.7-5.4l-1-17.5H56.7z M17.8,23.6L17.8,23.6c0-0.2,0.1-0.3,0.3-0.3h22.6l0.5,8.8H17.5   c0,0,0,0-0.1,0L17.8,23.6z M44.1,76.7h-28c-0.2,0-0.4-0.2-0.4-0.3l0.1-2.6h28.7L44.1,76.7z M54.1,64.3c-0.1-1-1-1.8-2-1.8h-4.2   c-1,0-1.9,0.8-2,1.8l-1.1,7.5H15.9L17.4,34c0,0,0.1,0,0.1,0h23.8l1,17.6c0.2,4.1,3.6,7.3,7.7,7.3s7.5-3.2,7.7-7.3l1-17.6h23.8   c0.1,0,0.1,0,0.1,0l1.4,37.8H55.2L54.1,64.3z M83.9,76.7h-28l-0.4-2.9h28.7l0.1,2.6C84.3,76.6,84.1,76.7,83.9,76.7z"/><path d="M50,30.8c1.7,0,3.1-1.4,3.1-3.1c0-1.7-1.4-3.1-3.1-3.1c-1.7,0-3.1,1.4-3.1,3.1C46.9,29.4,48.3,30.8,50,30.8z M50,26.6   c0.6,0,1.1,0.5,1.1,1.1s-0.5,1.1-1.1,1.1s-1.1-0.5-1.1-1.1S49.4,26.6,50,26.6z"/></g></svg>